<?xml version="1.0" encoding="UTF-8"?>
<svg width="48px" height="48px" viewBox="0 0 48 48" version="1.1" xmlns="http://www.w3.org/2000/svg" xmlns:xlink="http://www.w3.org/1999/xlink">
    <!-- Generator: Sketch 61.2 (89653) - https://sketch.com -->
    <title>facebook</title>
    <desc>Created with Sketch.</desc>
    <g id="Welcome" stroke="none" stroke-width="1" fill="none" fill-rule="evenodd">
        <g id="Main-Page" transform="translate(-1536.000000, -984.000000)" fill-rule="nonzero">
            <g id="facebook" transform="translate(1536.000000, 984.000000)">
                <path d="M27.869751,47.6877442 C27.6697998,47.7225098 27.4691162,47.7545411 27.2677002,47.7838379 C27.4691162,47.7545411 27.6697998,47.7225098 27.869751,47.6877442 Z" id="Path" fill="#000000"></path>
                <path d="M28.3498536,47.6070435 C28.2542724,47.6257935 28.1586914,47.642981 28.0631104,47.6605591 C28.1586914,47.642981 28.2542724,47.6257935 28.3498536,47.6070435 Z" id="Path" fill="#000000"></path>
                <path d="M26.7315674,47.845166 C26.4975586,47.873291 26.2620849,47.898291 26.0258789,47.9193847 C26.2620849,47.898291 26.4975586,47.873291 26.7315674,47.845166 Z" id="Path" fill="#000000"></path>
                <path d="M27.192627,47.789685 C27.0802002,47.8057007 26.9670411,47.8205444 26.854248,47.8346069 C26.9670411,47.8205444 27.0802002,47.8057007 27.192627,47.789685 Z" id="Path" fill="#000000"></path>
                <path d="M29.0031739,47.4773071 C28.9189453,47.4964477 28.8343506,47.5155884 28.7497558,47.5339477 C28.8343506,47.5155884 28.9189453,47.4964477 29.0031739,47.4773071 Z" id="Path" fill="#000000"></path>
                <path d="M30.6247558,47.074353 C30.5566406,47.0950561 30.4885254,47.1145874 30.4204102,47.1348999 C30.4885254,47.1145874 30.5566406,47.0950561 30.6247558,47.074353 Z" id="Path" fill="#000000"></path>
                <path d="M30.1343994,47.2083496 C30.0604248,47.2290527 29.9860839,47.2501465 29.9117432,47.2700683 C29.9860839,47.2501465 30.0604248,47.2294433 30.1343994,47.2083496 Z" id="Path" fill="#000000"></path>
                <path d="M29.4927979,47.3689087 C29.4144287,47.38844 29.3353271,47.4067993 29.2562256,47.4255493 C29.3353271,47.4067993 29.4144287,47.38844 29.4927979,47.3689087 Z" id="Path" fill="#000000"></path>
                <path d="M26.0181885,47.9168457 C25.8918458,47.9281738 25.7655029,47.9383301 25.638794,47.9473144 C25.7655029,47.9383301 25.8918458,47.9281738 26.0181885,47.9168457 Z" id="Path" fill="#000000"></path>
                <path d="M48,24 C48,10.7471924 37.2528076,0 24,0 C10.7471924,0 0,10.7471924 0,24 C0,37.2528076 10.7471924,48 24,48 C24.1409912,48 24.28125,47.9970703 24.421875,47.9945068 L24.421875,29.3115234 L19.265625,29.3115234 L19.265625,23.3023682 L24.421875,23.3023682 L24.421875,18.8803711 C24.421875,13.7519531 27.5526123,10.9606933 32.1273193,10.9606933 C34.3179932,10.9606933 36.2010498,11.1240234 36.75,11.1968994 L36.75,16.5567627 L33.5954589,16.5567627 C31.1066895,16.5567627 30.6247558,17.739624 30.6247558,19.4750977 L30.6247558,23.3023682 L36.5756836,23.3023682 L35.8000489,29.3115234 L30.6247558,29.3115234 L30.6247558,47.0727539 C40.6563721,44.1968994 48,34.9548339 48,24 Z" id="Path" fill="#FFFFFF"></path>
                <path d="M25.5856933,47.9484131 C25.3359375,47.9656005 25.085083,47.9792724 24.8334961,47.9882568 C25.085083,47.9792724 25.3359375,47.9656005 25.5856933,47.9484131 Z" id="Path" fill="#000000"></path>
                <path d="M24.8206787,47.9874146 C24.6881104,47.992102 24.5551758,47.9956177 24.4222412,47.9979614 C24.5551758,47.9956177 24.6881104,47.992102 24.8206787,47.9874146 Z" id="Path" fill="#000000"></path>
            </g>
        </g>
    </g>
</svg>