<?xml version="1.0" encoding="UTF-8"?>
<svg width="65px" height="65px" viewBox="0 0 65 65" version="1.1" xmlns="http://www.w3.org/2000/svg" xmlns:xlink="http://www.w3.org/1999/xlink">
    <!-- Generator: Sketch 61.2 (89653) - https://sketch.com -->
    <title>Ресурс 4</title>
    <desc>Created with Sketch.</desc>
    <g id="Welcome" stroke="none" stroke-width="1" fill="none" fill-rule="evenodd">
        <g id="Main-Page" transform="translate(-192.000000, -15.000000)">
            <g id="Ресурс-4" transform="translate(192.000000, 15.000000)">
                <circle id="Oval" fill="#BDCCD4" fill-rule="nonzero" cx="32.13" cy="32.47" r="32"></circle>
                <polygon id="Path" stroke="#000000" stroke-width="0.25" fill="#436380" fill-rule="nonzero" points="27.16 58.11 29.82 60.58 32.06 60.58 32.06 56.29 31.27 55.65"></polygon>
                <polygon id="Path" stroke="#000000" stroke-width="0.25" fill="#1B2833" fill-rule="nonzero" points="18.81 52.11 11.43 49.39 4.55 39.32 7.67 34.39 23.08 50.06"></polygon>
                <polygon id="Path" stroke="#000000" stroke-width="0.25" fill="#1B2833" fill-rule="nonzero" points="8.64 36.59 6.84 39.32 4.55 39.32 3 30.85 4.15 26.82 5.18 20.47 17.95 10.96 32.06 9.49 32.06 34.8"></polygon>
                <polygon id="Path" stroke="#000000" stroke-width="0.25" fill="#2F4559" fill-rule="nonzero" points="19.12 49.69 12.58 44.06 8.64 36.59 13.88 34.34 23.46 34.68 25.32 33.38 30.35 35.44 29.68 45.64"></polygon>
                <polygon id="Path" stroke="#000000" stroke-width="0.25" fill="#ECEAEB" fill-rule="nonzero" points="31.92 56.25 31.17 57.09 25.36 58.57 23.21 57.18 18.72 52.82 19.12 49.69 25.01 45.64 26.54 45.64"></polygon>
                <polyline id="Path" stroke="#000000" stroke-width="0.25" fill="#6494BF" fill-rule="nonzero" points="32.06 24.14 32.06 48.24 26.9 49.69 26.45 44.73 28.8 41.41 28.27 36.59 24.61 32.6 28.8 26.92 28.53 23.79 29.68 23.28"></polyline>
                <polygon id="Path" stroke="#000000" stroke-width="0.25" fill="#436380" fill-rule="nonzero" points="27.3 51.12 26.9 49.69 30.16 43.68 32.06 42.72 32.06 50.73"></polygon>
                <polygon id="Path" stroke="#000000" stroke-width="0.25" fill="#000000" fill-rule="nonzero" points="30.83 50.29 28.5 50.06 27.3 51.12 27.97 51.93 28.7 51.88 30.41 52.81 30.41 53.48 30.11 53.99 30.41 54.47 30.88 55 30.58 55.14 31.36 56.1 32.06 56.29 32.06 50.73"></polygon>
                <polygon id="Path" stroke="#000000" stroke-width="0.25" fill="#2F4559" fill-rule="nonzero" points="30.41 54.47 30.11 53.99 30.41 53.48 30.41 52.81 28.7 51.88 27.97 51.93 30.58 55.14 30.88 55"></polygon>
                <polygon id="Path" stroke="#000000" stroke-width="0.25" fill="#2F4559" fill-rule="nonzero" points="16.32 12.25 5.37 1.09 2.39 0.58 0.14 1.64 0.14 1.64 0.29 8.03 1.67 11.34 2.96 17.35 4.68 19.29 5.16 20.45 16.32 12.25"></polygon>
                <polygon id="Path" stroke="#000000" stroke-width="0.25" fill="#1B2833" fill-rule="nonzero" points="5.28 1.16 16.32 12.25 16.32 12.25 17.97 11.03 12 5.45 5.33 0.64 2.34 0.13 0.13 1.1 0.14 1.64 0.14 1.64 2.39 0.58"></polygon>
                <polygon id="Path" stroke="#000000" stroke-width="0.25" fill="#436380" fill-rule="nonzero" points="36.94 58.11 34.29 60.58 32.05 60.58 32.05 56.29 32.84 55.65"></polygon>
                <polygon id="Path" stroke="#000000" stroke-width="0.25" fill="#1B2833" fill-rule="nonzero" points="45.3 52.11 52.67 49.39 59.56 39.32 56.44 34.39 41.03 50.06"></polygon>
                <polygon id="Path" stroke="#000000" stroke-width="0.25" fill="#1B2833" fill-rule="nonzero" points="55.47 36.59 57.27 39.32 59.56 39.32 61.11 30.85 59.96 26.82 58.93 20.47 46.15 10.96 32.05 9.49 32.05 34.8"></polygon>
                <polygon id="Path" stroke="#000000" stroke-width="0.25" fill="#2F4559" fill-rule="nonzero" points="44.99 49.69 51.53 44.06 55.47 36.59 50.23 34.34 40.65 34.68 38.79 33.38 33.76 35.44 34.43 45.64"></polygon>
                <polygon id="Path" stroke="#000000" stroke-width="0.25" fill="#ECEAEB" fill-rule="nonzero" points="32.19 56.25 32.94 57.09 38.75 58.57 40.9 57.18 45.39 52.82 44.99 49.69 39.1 45.64 37.57 45.64"></polygon>
                <polygon id="Path" stroke="#000000" stroke-width="0.25" fill="#6494BF" fill-rule="nonzero" points="37.21 49.69 37.65 44.73 35.31 41.41 35.84 36.59 39.5 32.6 35.31 26.92 35.58 23.79 34.43 23.28 33.23 25.9 32.05 24.14 32.05 48.24"></polygon>
                <polygon id="Path" stroke="#000000" stroke-width="0.25" fill="#436380" fill-rule="nonzero" points="36.81 51.12 37.21 49.69 33.94 43.68 32.05 42.72 32.05 50.73"></polygon>
                <polygon id="Path" stroke="#000000" stroke-width="0.25" fill="#000000" fill-rule="nonzero" points="33.28 50.29 35.61 50.06 36.81 51.12 36.14 51.93 35.41 51.88 33.69 52.81 33.69 53.48 33.99 53.99 33.69 54.47 33.23 55 33.52 55.14 32.75 56.1 32.05 56.29 32.05 50.73"></polygon>
                <polygon id="Path" stroke="#000000" stroke-width="0.25" fill="#2F4559" fill-rule="nonzero" points="33.69 54.47 33.99 53.99 33.69 53.48 33.69 52.81 35.41 51.88 36.14 51.93 33.52 55.14 33.23 55"></polygon>
                <polygon id="Path" stroke="#000000" stroke-width="0.25" fill="#2F4559" fill-rule="nonzero" points="28.05 25.67 23.47 31.22 22.84 34.01 23.1 34.66 23.46 34.68 25.32 33.38 24.61 32.6 28.33 27.55"></polygon>
                <polygon id="Path" stroke="#000000" stroke-width="0.25" fill="#594432" fill-rule="nonzero" points="36.06 25.67 40.63 31.22 41.26 34.01 41.01 34.66 40.65 34.68 38.79 33.38 39.5 32.6 35.77 27.55"></polygon>
                <path d="M24.2,7.8 L22.92,9.8 L33.22,15.47 C34.6843966,16.3496162 35.9238024,17.5582081 36.84,19 C38.1371768,20.9273637 39.0505179,23.0867874 39.53,25.36 C39.53,25.36 41.47,22.69 42.4,22.36 C42.4,22.36 39.5,17.56 38.49,16.93 C38.49,16.93 35.49,14.11 34.49,13.72 L24.2,7.8 Z" id="Path" fill="#BDBEC2" fill-rule="nonzero"></path>
                <path d="M20.16,9.14 L21.16,8.85 L21.16,8.85 C21.16,8.85 33.63,15.36 34.74,16.57 L34.74,16.57 C37.3097451,18.8686085 39.0320175,21.9644723 39.63,25.36 L39.12,26.15 L37.12,28.99 L36.89,29.46 C36.5765986,30.4702195 36.1819779,31.4534269 35.71,32.4 C35.2185728,33.2830876 34.1068856,33.6045393 33.22,33.12 C32.8672332,32.9259368 32.589241,32.6197936 32.43,32.25 C32.33,32.02 32.23,31.79 32.11,31.57 C31.8897542,31.1822278 31.5334029,30.8900197 31.11,30.75 C30.6902841,30.6385935 30.3715391,30.2965257 30.29,29.87 C30.2395308,29.4978821 30.3739259,29.1245623 30.65,28.87 C30.9708855,28.5098596 31.120379,28.0285634 31.06,27.55 L30.71,24.73 C30.6424277,24.2650199 30.3854217,23.8487426 30,23.58 L19.57,15.69 C19.1821852,15.4131209 18.9311187,14.9837608 18.88,14.51 C18.7015578,13.151257 18.718395,11.7739747 18.93,10.42 C19.0711339,9.79837316 19.5444869,9.3057781 20.16,9.14 Z" id="Path" stroke="#000000" stroke-width="0.25" fill="#BDBEC2" fill-rule="nonzero"></path>
                <polygon id="Path" stroke="#000000" stroke-width="0.25" fill="#BDBEC2" fill-rule="nonzero" points="19.95 18.91 26.34 23.63 29.06 22.95 19.99 16.18"></polygon>
                <line x1="26.34" y1="23.63" x2="26.47" y2="21.02" id="Path" stroke="#000000" stroke-width="0.25"></line>
                <line x1="25.85" y1="23.26" x2="25.98" y2="20.65" id="Path" stroke="#000000" stroke-width="0.25"></line>
                <line x1="25.35" y1="22.9" x2="25.48" y2="20.29" id="Path" stroke="#000000" stroke-width="0.25"></line>
                <line x1="24.86" y1="22.53" x2="24.99" y2="19.92" id="Path" stroke="#000000" stroke-width="0.25"></line>
                <line x1="24.36" y1="22.16" x2="24.49" y2="19.55" id="Path" stroke="#000000" stroke-width="0.25"></line>
                <line x1="23.87" y1="21.8" x2="24" y2="19.19" id="Path" stroke="#000000" stroke-width="0.25"></line>
                <line x1="23.37" y1="21.43" x2="23.5" y2="18.82" id="Path" stroke="#000000" stroke-width="0.25"></line>
                <line x1="22.88" y1="21.07" x2="23.01" y2="18.46" id="Path" stroke="#000000" stroke-width="0.25"></line>
                <line x1="22.38" y1="20.7" x2="22.51" y2="18.09" id="Path" stroke="#000000" stroke-width="0.25"></line>
                <line x1="21.89" y1="20.33" x2="22.02" y2="17.72" id="Path" stroke="#000000" stroke-width="0.25"></line>
                <line x1="21.4" y1="19.97" x2="21.52" y2="17.36" id="Path" stroke="#000000" stroke-width="0.25"></line>
                <line x1="20.9" y1="19.6" x2="21.03" y2="16.99" id="Path" stroke="#000000" stroke-width="0.25"></line>
                <ellipse id="Oval" fill="#000000" fill-rule="nonzero" cx="31.38" cy="29.7" rx="1" ry="1"></ellipse>
                <polyline id="Path" stroke="#9E005D" stroke-width="0.25" points="40.14 11.32 42.31 11.21 45.08 12.97"></polyline>
                <path d="M24.23,7.8 L25,7.65 L32.48,6.85 L41.77,12.36 C43.3137381,13.3458353 44.7136744,14.5404925 45.93,15.91 C47.514598,17.7909334 48.8987488,19.8319693 50.06,22 C47.4910225,21.4493476 44.8226837,21.5803513 42.32,22.38 C41.354988,20.478794 40.1335897,18.7190383 38.69,17.15 C37.3725388,15.8898636 35.9655233,14.7268199 34.48,13.67 C34.48,13.67 24.26,8 24.24,7.81 C24.22,7.62 22.08,11.13 23.31,9.15" id="Path" stroke="#000000" stroke-width="0.25" fill="#BDBEC2" fill-rule="nonzero"></path>
                <polyline id="Path" stroke="#9E005D" stroke-width="0.25" points="54.35 24.73 55.65 24.07 57.9 24.3"></polyline>
                <path d="M39.5,25.62 C40.1784097,24.3433504 41.1395313,23.2385736 42.31,22.39 C42.31,22.39 47.98,20.58 50.71,22.39 C53.44,24.2 55.28,24.95 56.38,27.39 C56.38,27.39 57.21,28.62 54.98,30.47 C54.1425288,31.0989832 53.4013787,31.8468711 52.78,32.69 C52.17,33.69 52.02,34.2 51.55,34.54 C51.2653259,34.7680104 50.9145263,34.8978063 50.55,34.91 L49.38,34.91 C49.8104292,32.5131619 48.5231275,30.1378826 46.28,29.19 C42.28,27.19 39.4,31.4 39.4,31.4 C38.6032624,30.6635508 37.8706208,29.8606558 37.21,29 C37.21,28.79 39.5,25.62 39.5,25.62 Z" id="Path" stroke="#000000" stroke-width="0.25" fill="#999999" fill-rule="nonzero"></path>
                <path d="M39.37,31.49 C38.527347,30.8289829 37.7594554,30.0778575 37.08,29.25 C37.08,29.25 35.51,34.38 33.49,35.54 C33.49,35.54 34.16,37.96 38.09,39.74 C38.237866,39.8030362 38.3920876,39.8499732 38.55,39.88 C41.6135801,40.6953479 44.2672223,42.6152313 46,45.27 C47.715668,43.4537637 49.8270299,42.0575957 52.17,41.19 C53.1491033,40.7969756 54.1509027,40.4630425 55.17,40.19 C55.17,40.19 58.93,39.03 60.17,38.41 C60.8229518,38.085893 61.1790113,37.3655888 61.04,36.65 C60.71,35.53 61.04,34.24 57.53,29.81 C57.53,29.81 57.05,29.17 55.1,30.45 C54.318281,31.049966 53.6248234,31.7568888 53.04,32.55 C52.14,33.79 51.96,34.63 51.04,34.89 C50.5616982,34.9778703 50.0763044,35.0213884 49.59,35.02 L49.36,35.02 C49.36,35.02 48.36,39.24 44.07,39.2 C42.6741507,39.2186751 41.3283379,38.6806616 40.3300402,37.7048819 C39.3317426,36.7291023 38.7631701,35.3959121 38.75,34 C38.7307521,33.1148812 38.9408984,32.2398459 39.36,31.46" id="Path" stroke="#000000" stroke-width="0.25" fill="#999999" fill-rule="nonzero"></path>
                <line x1="40.39" y1="24.24" x2="40.2" y2="30.28" id="Path" stroke="#000000" stroke-width="0.25"></line>
                <line x1="48.58" y1="21.67" x2="54.02" y2="31.4" id="Path" stroke="#000000" stroke-width="0.25"></line>
                <line x1="54.66" y1="40.2" x2="49.05" y2="35.98" id="Path" stroke="#000000" stroke-width="0.25"></line>
                <line x1="38.57" y1="39.89" x2="40.51" y2="37.82" id="Path" stroke="#000000" stroke-width="0.25"></line>
                <line x1="56.55" y1="39.5" x2="55.83" y2="30.24" id="Path" stroke="#000000" stroke-width="0.25"></line>
                <polygon id="Path" fill="#000000" fill-rule="nonzero" points="47.36 29.57 45.59 28.72 46.46 27 48.22 27.84"></polygon>
                <polygon id="Path" fill="#000000" fill-rule="nonzero" points="38.14 38.15 37.2 36.46 38.93 35.54 39.87 37.23"></polygon>
                <polygon id="Path" fill="#000000" fill-rule="nonzero" points="47.56 40.39 46.4 38.84 47.98 37.7 49.15 39.24"></polygon>
                <ellipse id="Oval" stroke="#000000" stroke-width="0.25" fill="#C1272D" fill-rule="nonzero" cx="44.09" cy="33.89" rx="5.38" ry="5.25"></ellipse>
                <ellipse id="Oval" stroke="#000000" stroke-width="0.25" fill="#FF0000" fill-rule="nonzero" cx="44.11" cy="33.86" rx="3.92" ry="3.83"></ellipse>
                <ellipse id="Oval" fill="#C1272D" fill-rule="nonzero" cx="44.13" cy="33.9" rx="2.56" ry="2.5"></ellipse>
                <path d="M47.86,12.16 L58.86,1.09 L61.86,0.6 L64.1,1.66 L63.91,8.06 C63.03,8.06 61.11,8.2 60.97,8.84 C60.97,9.06 61.1,9.23 61.81,10.29 C62.11,10.74 62.36,11.12 62.51,11.36 L61.17,17.36 L59.44,19.28 L59,20.45 L47.86,12.16 Z" id="Path" stroke="#000000" stroke-width="0.25" fill="#2F4559" fill-rule="nonzero"></path>
                <polygon id="Path" stroke="#000000" stroke-width="0.25" fill="#1B2833" fill-rule="nonzero" points="58.98 1.16 47.86 12.16 47.86 12.16 46.22 10.93 52.23 5.4 58.93 0.64 61.92 0.14 64.13 1.13 64.11 1.67 64.11 1.67 61.87 0.6"></polygon>
                <polyline id="Path" stroke="#9E005D" stroke-width="0.25" points="14.05 50.35 18.33 45.06 18.36 29.68"></polyline>
                <polyline id="Path" stroke="#9E005D" stroke-width="0.25" points="11.91 49.58 16.18 44.3 16.21 28.91 16.18 24.92"></polyline>
                <ellipse id="Oval" fill="#9E005D" fill-rule="nonzero" cx="18.36" cy="29.69" rx="1" ry="1"></ellipse>
                <ellipse id="Oval" stroke="#9E005D" stroke-width="0.25" cx="16.18" cy="24.61" rx="1" ry="1"></ellipse>
                <polygon id="Path" fill="#000000" fill-rule="nonzero" points="24.21 40.33 23.78 42.27 24.81 42.27 25.32 40.33 22.84 34.01 18.02 32.89 13.56 33.78 13.88 34.34 14.76 34.71 15.26 37.3 18.15 39.94 22.71 40.07 23.54 39.43"></polygon>
                <polygon id="Path" fill="#F5DD93" fill-rule="nonzero" points="15.85 33.72 15.45 34.63 15.85 37.05 18.21 39.33 22.65 39.67 24.01 37.92 22.51 34.22 18.03 33.28"></polygon>
                <polygon id="Path" fill="#241B16" fill-rule="nonzero" points="19.63 34.98 20.17 35.31 20.17 36.27 19.84 37.18 19.63 37.18 19.49 36.08"></polygon>
                <path d="M7.3,32.14 L7.09,32.23 L6.91,32.4 C6.87126882,32.436645 6.82255475,32.4610021 6.77,32.47 C6.71779438,32.4615687 6.67105279,32.4328046 6.64,32.39 L6.41,32.21 L6.41,32.21 L6.41,33 L6.41,33 L6.51,32.91 L6.58,32.84 C6.64368503,32.7700788 6.72229548,32.7153932 6.81,32.68 C6.87303982,32.6876307 6.92871017,32.7247443 6.96,32.78 L7.1,32.96 C7.15128885,33.0178614 7.22293759,33.0536857 7.3,33.06 L7.3,33.06 L7.3,33.06 C7.29691181,33.1009374 7.27466793,33.1380105 7.24,33.16 C7.18807115,33.1989466 7.12491106,33.22 7.06,33.22 C6.99206958,33.2195293 6.93019039,33.1808548 6.9,33.12 L6.77,33 C6.77,32.93 6.69,32.9 6.66,32.9 L6.66,33.02 L6.48,33.18 C6.41919277,33.2355595 6.37139033,33.3038487 6.34,33.38 L6.14,33.38 C6.12995934,33.3542785 6.12995934,33.3257215 6.14,33.3 C6.12995934,33.2742785 6.12995934,33.2457215 6.14,33.22 L6.14,32.3 C6.12954232,32.2169948 6.12954232,32.1330052 6.14,32.05 C6.13988298,32.0163632 6.15388905,31.9842215 6.17860566,31.9614061 C6.20332227,31.9385908 6.23647998,31.9271967 6.27,31.93 C6.33455564,31.9418557 6.39390428,31.9732756 6.44,32.02 L6.53,32.11 L6.62,32.19 C6.66472464,32.2404006 6.72421805,32.2753968 6.79,32.29 C6.86805246,32.1994281 6.93830294,32.1024155 7,32 C7.04248589,31.930506 7.1185587,31.888666 7.2,31.89 C7.23403412,31.8703504 7.27596588,31.8703504 7.31,31.89 L7.31,32 C7.35825558,32.0502975 7.35825558,32.1297025 7.31,32.18 L7.3,32.14 Z" id="Path" fill="#662D91" fill-rule="nonzero"></path>
                <path d="M7.63,35.43 C7.59138265,35.489001 7.52964412,35.5289495 7.46,35.54 C7.4,35.54 7.34,35.54 7.28,35.4 L7.2,35.27 L7.13,35.15 C7.07,35.05 7,35 7,35 C7,35 6.88,35 6.8,35.14 L6.65,35.28 L6.54,35.41 C6.47111709,35.4947294 6.3691133,35.5457313 6.26,35.55 L6.26,35.55 L6.26,34.55 C6.24853045,34.4807205 6.27082284,34.4101279 6.32,34.36 C6.38670302,34.2956663 6.46967468,34.2507233 6.56,34.23 L6.56,34.23 C6.62,34.23 6.7,34.29 6.79,34.41 L6.93,34.59 L7.06,34.77 L7.21,34.64 C7.24943836,34.5836009 7.28294931,34.5232812 7.31,34.46 C7.33796451,34.3874169 7.38247766,34.3223593 7.44,34.27 C7.48050084,34.2284324 7.53291743,34.2004769 7.59,34.19 L7.68,34.19 L7.74,34.25 L7.74,35.35 L7.63,35.43 Z M6.63,34.68 L6.57,34.62 L6.51,34.55 L6.38,34.45 L6.38,35.18 L6.38,35.18 L6.68,34.97 C6.71542927,34.9194244 6.75942437,34.8754293 6.81,34.84 L6.63,34.68 Z M7.42,34.68 C7.43000519,34.6070079 7.43000519,34.5329921 7.42,34.46 L7.23,34.64 C7.18631855,34.6701008 7.1517304,34.7116066 7.13,34.76 C7.1950858,34.80012 7.24987997,34.8549142 7.29,34.92 C7.34935827,34.9973485 7.39968464,35.0812258 7.44,35.17 L7.44,35.1 L7.44,35.1 L7.44,35 C7.44,34.9 7.44,34.79 7.44,34.69 L7.42,34.68 Z" id="Shape" fill="#662D91" fill-rule="nonzero"></path>
                <path d="M9.63,31.06 L9.63,31.26 C9.62003356,31.3095033 9.62003356,31.3604967 9.63,31.41 L9.63,31.41 C9.61953169,31.4460882 9.60258954,31.4799725 9.58,31.51 C9.57777454,31.536004 9.56437046,31.5597613 9.54326324,31.575112 C9.52215603,31.5904627 9.49542458,31.5958948 9.47,31.59 L9.39,31.59 C9.37928203,31.5714359 9.37928203,31.5485641 9.39,31.53 L9.39,31.53 L9.39,31.42 C9.39992393,31.3570554 9.39992393,31.2929446 9.39,31.23 C9.36898686,31.1705568 9.3130451,31.1305984 9.25,31.13 C9.24009431,31.1591823 9.24009431,31.1908177 9.25,31.22 L9.25,31.34 C9.23983867,31.3793547 9.23983867,31.4206453 9.25,31.46 L9.25,31.53 L9.25,31.53 L9.25,31.53 C9.25,31.58 9.25,31.58 9.19,31.53 L9,31.53 C8.98928203,31.5114359 8.98928203,31.4885641 9,31.47 C8.98983867,31.4306453 8.98983867,31.3893547 9,31.35 L9,31.23 C8.98992957,31.1704226 8.98992957,31.1095774 9,31.05 C9.00174085,31.0333788 9.00174085,31.0166212 9,31 L8.88,31 C8.87022624,31.0360154 8.87022624,31.0739846 8.88,31.11 C8.87016221,31.152775 8.87016221,31.197225 8.88,31.24 C8.87009498,31.2962338 8.87009498,31.3537662 8.88,31.41 L8.88,31.56 C8.86931424,31.5899685 8.85225542,31.6172626 8.83,31.64 L8.63,31.64 L8.63,30.91 C8.64000173,30.7835308 8.64000173,30.6564692 8.63,30.53 C8.61997436,30.4974205 8.61997436,30.4625795 8.63,30.43 L8.63,30.34 C8.61995934,30.3142785 8.61995934,30.2857215 8.63,30.26 C8.66174545,30.2454495 8.69825455,30.2454495 8.73,30.26 L8.9,30.45 C8.98032164,30.5207517 9.0714817,30.5781488 9.17,30.62 L9.35,30.68 L9.53,30.73 C9.57995121,30.7588363 9.61051629,30.8123252 9.61,30.87 C9.61931837,30.9330261 9.6259909,30.996415 9.63,31.06 Z M9.33,30.82 L9.23,30.82 L8.92,30.67 L8.92,30.78 L9.28,30.95 C9.33732246,30.9722797 9.39119292,31.0025818 9.44,31.04 L9.44,30.91 L9.33,30.82 Z" id="Shape" fill="#662D91" fill-rule="nonzero"></path>
                <path d="M9.63,33.85 L9.53,33.85 L9.46,33.77 L9.46,33.65 C9.45007607,33.5870554 9.45007607,33.5229446 9.46,33.46 L9.46,33.22 L9.26,33.06 L9.2,33.06 C9.17081769,33.0500943 9.13918231,33.0500943 9.11,33.06 L9.11,33.13 L9.11,33.19 C9.04014812,33.274503 9.00132943,33.3803721 9,33.49 L9,33.86 L8.63,33.86 C8.58998394,33.5278676 8.58998394,33.1921324 8.63,32.86 C8.61007905,32.7307632 8.61007905,32.5992368 8.63,32.47 C8.63986012,32.4116316 8.69081041,32.369173 8.75,32.3699881 L8.75,32.3699881 C8.80951333,32.3915249 8.86158211,32.4297086 8.9,32.48 L9.11,32.7 L9.27,32.54 C9.39,32.43 9.48,32.3699881 9.55,32.3699881 L9.61,32.3699881 L9.61,32.46 C9.59998795,32.5329921 9.59998795,32.6070079 9.61,32.68 C9.59998795,32.7730653 9.59998795,32.8669347 9.61,32.96 L9.61,33.71 L9.61,33.71 L9.63,33.85 Z M8.92,32.85 L8.86,32.78 L8.86,32.78 L8.86,32.84 L8.86,32.84 L8.86,33.07 L8.95,33.07 L9,33 L8.92,32.85 Z M9.33,32.76 L9.4,32.76 L9.4,32.61 L9.4,32.61 L9.33,32.76 Z" id="Shape" fill="#662D91" fill-rule="nonzero"></path>
                <path d="M12.43,30.36 C12.3830164,30.3957662 12.3281549,30.4197681 12.27,30.43 C12.2093927,30.4225703 12.1566845,30.3849216 12.13,30.33 L12,30.21 L12,30.1 C11.9350878,30.0281874 11.8648918,29.961334 11.79,29.9 L11.79,30.26 L11.87,30.32 L11.87,30.38 L11.77,30.47 L11.68,30.47 C11.669282,30.4514359 11.669282,30.4285641 11.68,30.41 C11.6705542,30.3876226 11.6705542,30.3623774 11.68,30.34 L11.68,29.86 L11.47,30.12 L11.26,30.37 C11.2148524,30.4198838 11.1555358,30.454776 11.09,30.47 C11.0540541,30.4802815 11.0159459,30.4802815 10.98,30.47 C10.9688687,30.444495 10.9688687,30.415505 10.98,30.39 C10.98,30.34 10.98,30.3 11.1,30.29 C11.2004709,30.2828381 11.293988,30.2360795 11.36,30.16 L11.4,30 L11.5,29.87 L11.5,29.81 C11.5349913,29.7663163 11.5589959,29.7148778 11.57,29.66 C11.5799664,29.6104967 11.5799664,29.5595033 11.57,29.51 L11.57,29.19 C11.551525,29.1628444 11.551525,29.1271556 11.57,29.1 C11.6040341,29.0803504 11.6459659,29.0803504 11.68,29.1 C11.7020952,29.08925 11.7279048,29.08925 11.75,29.1 C11.7600256,29.1325795 11.7600256,29.1674205 11.75,29.2 L11.75,29.44 C11.7399901,29.4928637 11.7399901,29.5471363 11.75,29.6 C11.7400943,29.6291823 11.7400943,29.6608177 11.75,29.69 C11.7405542,29.7123774 11.7405542,29.7376226 11.75,29.76 C11.7722803,29.813703 11.8107255,29.8591383 11.86,29.89 C11.9338069,29.9453658 12.0009245,30.0091275 12.06,30.08 C12.105621,30.1537979 12.1716028,30.2128343 12.25,30.25 C12.2961296,30.2600129 12.3438704,30.2600129 12.39,30.25 L12.51,30.25 C12.502445,30.2973446 12.4727136,30.3382253 12.43,30.36 L12.43,30.36 Z" id="Path" fill="#662D91" fill-rule="nonzero"></path>
                <path d="M11.86,32.62 L11.63,32.62 C11.619282,32.6014359 11.619282,32.5785641 11.63,32.56 L11.63,32.5 L11.63,32.5 C11.63,32.5 11.63,32.44 11.5,32.4 L11.13,32.26 L11.13,32.42 L11.19,32.49 L11.13,32.58 C11.0883596,32.6323895 11.0267362,32.6650137 10.96,32.67 L10.88,32.67 C10.8596285,32.6472239 10.8596285,32.6127761 10.88,32.59 C10.8666667,32.558 10.8666667,32.522 10.88,32.49 L10.88,31.49 L10.88,31.4 C10.8699593,31.3742785 10.8699593,31.3457215 10.88,31.32 C10.8705542,31.2976226 10.8705542,31.2723774 10.88,31.25 C10.9261296,31.2399871 10.9738704,31.2399871 11.02,31.25 L11.19,31.25 L11.19,31.31 C11.1824627,31.35989 11.1531534,31.4038541 11.11,31.43 C11.0999593,31.4557215 11.0999593,31.4842785 11.11,31.51 C11.2015271,31.5730105 11.3029162,31.6203254 11.41,31.65 L11.61,31.73 L11.61,31.61 C11.6200052,31.5370079 11.6200052,31.4629921 11.61,31.39 L11.61,31.27 C11.6510822,31.2502467 11.6989178,31.2502467 11.74,31.27 L11.83,31.27 L11.83,31.35 C11.8001298,31.3880577 11.7795818,31.4325784 11.77,31.48 C11.7498319,31.5688701 11.7498319,31.6611299 11.77,31.75 C11.750037,31.9394756 11.750037,32.1305244 11.77,32.32 C11.7722074,32.4023432 11.7891412,32.4836259 11.82,32.56 L11.82,32.56 C11.82,32.56 11.89,32.6 11.86,32.62 Z M11.63,31.87 L11.47,31.87 L11.14,31.76 L11.14,32.11 L11.27,32.11 L11.37,32.11 L11.53,32.17 L11.67,32.22 L11.63,31.87 Z" id="Shape" fill="#662D91" fill-rule="nonzero"></path>
                <line x1="1.23" y1="12.54" x2="3.28" y2="11.52" id="Path" stroke="#000000" stroke-width="0.25"></line>
                <line x1="0.14" y1="10.52" x2="2.19" y2="9.5" id="Path" stroke="#000000" stroke-width="0.25"></line>
                <line x1="0.71" y1="11.56" x2="2.76" y2="10.54" id="Path" stroke="#000000" stroke-width="0.25"></line>
                <ellipse id="Oval" stroke="#9E005D" stroke-width="0.25" cx="58.08" cy="24.28" rx="1" ry="1"></ellipse>
                <polyline id="Path" stroke="#000000" stroke-width="0.25" points="34.47 13.63 36.18 13.06 33.08 11.29"></polyline>
                <ellipse id="Oval" fill="#000000" fill-rule="nonzero" cx="33.1" cy="11.27" rx="1" ry="1"></ellipse>
                <polygon id="Path" stroke="#000000" stroke-width="0.25" fill="#1B1464" fill-rule="nonzero" points="56.48 48.25 55.18 49.24 53.65 48.65 53.41 47.07 54.7 46.08 56.24 46.67"></polygon>
                <polygon id="Path" stroke="#000000" stroke-width="0.25" fill="#1B1464" fill-rule="nonzero" points="52.4 51.22 51.11 52.21 49.57 51.62 49.33 50.04 50.62 49.05 52.16 49.64"></polygon>
                <path d="M45.22,49 C44.9491556,51.0825132 44.2694709,53.0909814 43.22,54.91 L52,50.12 C52.2957667,49.9565527 52.571035,49.7584938 52.82,49.53 L57.67,45.06 C58.0922905,44.6486872 58.4080557,44.1407172 58.59,43.58 L60.31,38.15 L51.87,41.25 C51.87,41.25 46.02,44.41 45.87,45.25 C45.72,46.09 45.22,49 45.22,49 Z" id="Path" stroke="#000000" stroke-width="0.25" fill="#BDCCD4" fill-rule="nonzero"></path>
                <polyline id="Path" stroke="#000000" stroke-width="0.25" points="47.29 17.58 45.58 17.57 46.69 19.07 44.07 19.38"></polyline>
                <ellipse id="Oval" fill="#000000" fill-rule="nonzero" cx="44.09" cy="19.4" rx="1" ry="1"></ellipse>
                <line x1="23.33" y1="10.04" x2="23.17" y2="18.5" id="Path" stroke="#000000" stroke-width="0.25"></line>
                <polyline id="Path" stroke="#9E005D" stroke-width="0.25" points="48.7 19.58 49.99 18.92 51.06 16.98"></polyline>
                <ellipse id="Oval" stroke="#9E005D" stroke-width="0.25" cx="24.04" cy="11.88" rx="1" ry="1"></ellipse>
                <ellipse id="Oval" stroke="#9E005D" stroke-width="0.25" cx="23.92" cy="17.69" rx="1" ry="1"></ellipse>
                <polyline id="Path" stroke="#000000" stroke-width="0.25" points="30.74 24.74 32.54 24.21 32.94 24.61 34.1 24.3 34.1 23.76 36.36 23.19 36.68 23.49 37.91 23.19 37.91 22.73 38.87 22.55"></polyline>
                <polygon id="Path" stroke="#000000" stroke-width="0.25" fill="#9E005D" fill-rule="nonzero" points="40.8 11.83 39.98 13.65 42.76 13.08"></polygon>
                <polygon id="Path" fill="#9E005D" fill-rule="nonzero" points="45.51 13.01 45.27 13.35 44.92 13.11 45.15 12.78"></polygon>
                <ellipse id="Oval" fill="#9E005D" fill-rule="nonzero" cx="50.99" cy="17.1" rx="1" ry="1"></ellipse>
            </g>
        </g>
    </g>
</svg>