<?xml version="1.0" encoding="UTF-8"?>
<svg width="48px" height="48px" viewBox="0 0 48 48" version="1.1" xmlns="http://www.w3.org/2000/svg" xmlns:xlink="http://www.w3.org/1999/xlink">
    <!-- Generator: Sketch 61.2 (89653) - https://sketch.com -->
    <title>spotify-sketch</title>
    <desc>Created with Sketch.</desc>
    <g id="Welcome" stroke="none" stroke-width="1" fill="none" fill-rule="evenodd">
        <g id="Main-Page" transform="translate(-1104.000000, -288.000000)" fill="#FFFFFF" fill-rule="nonzero">
            <g id="spotify-sketch" transform="translate(1104.000000, 288.000000)">
                <path d="M35.344,33.436 C28.88,29.178 20.754,28.144 11.192,30.372 C9.272,30.818 9.92,33.732 11.872,33.294 C27.256,29.718 32.966,36.19 34.518,36.19 C36.002,36.188 36.584,34.254 35.344,33.436 Z" id="Path"></path>
                <path d="M10.514,25.792 C19.116,23.756 28.882,24.94 36.002,28.876 C37.734,29.834 39.186,27.208 37.454,26.252 C29.704,21.968 19.12,20.676 9.824,22.874 C7.896,23.328 8.578,26.246 10.514,25.792 Z" id="Path"></path>
                <path d="M9.378,17.988 C18.438,15.216 31.148,16.736 38.316,21.448 C39.962,22.53 41.624,20.032 39.964,18.942 C32.004,13.708 18.48,12.066 8.5,15.118 C6.596,15.7 7.492,18.57 9.378,17.988 Z" id="Path"></path>
                <path d="M24,48 C37.234,48 48,37.234 48,24 C48,10.766 37.234,0 24,0 C10.766,0 0,10.766 0,24 C0,37.234 10.766,48 24,48 Z M24,3 C35.58,3 45,12.42 45,24 C45,35.58 35.58,45 24,45 C12.42,45 3,35.58 3,24 C3,12.42 12.42,3 24,3 Z" id="Shape"></path>
            </g>
        </g>
    </g>
</svg>