<?xml version="1.0" encoding="UTF-8"?>
<svg width="48px" height="48px" viewBox="0 0 48 48" version="1.1" xmlns="http://www.w3.org/2000/svg" xmlns:xlink="http://www.w3.org/1999/xlink">
    <!-- Generator: Sketch 61.2 (89653) - https://sketch.com -->
    <title>itunes</title>
    <desc>Created with Sketch.</desc>
    <g id="Welcome" stroke="none" stroke-width="1" fill="none" fill-rule="evenodd">
        <g id="Main-Page" transform="translate(-1032.000000, -288.000000)" fill="#FFFFFF" fill-rule="nonzero">
            <g id="itunes" transform="translate(1032.000000, 288.000000)">
                <path d="M40.970581,7.02941897 C36.4376221,2.49645994 30.4105224,0 24,0 C17.5894776,0 11.5623779,2.49645994 7.02941897,7.02941897 C2.49645994,11.5623779 -2.66453526e-15,17.5894776 -2.66453526e-15,24 C-2.66453526e-15,30.4105224 2.49645994,36.4376221 7.02941897,40.970581 C11.5623779,45.5035401 17.5894776,48 24,48 C30.4105224,48 36.4376221,45.5035401 40.970581,40.970581 C45.5035401,36.4376221 48,30.4105224 48,24 C48,17.5894776 45.5035401,11.5623779 40.970581,7.02941897 Z M24,44.25 C12.8342286,44.25 3.75,35.1657714 3.75,24 C3.75,12.8342286 12.8342286,3.75 24,3.75 C35.1657714,3.75 44.25,12.8342286 44.25,24 C44.25,35.1657714 35.1657714,44.25 24,44.25 Z M16.875,12.5255127 L33.75,9.15051272 L33.75,29.6791992 C33.75,32.5305176 30.7902833,34.875 27.9389648,34.875 L27.8375244,34.875 C26.0423584,34.875 24.3149414,33.6540527 24.0402833,31.8812256 C23.9901123,31.5541992 23.9871826,31.2282714 24.0303955,30.9027099 C24.2113037,29.5045166 25.2579346,28.3681641 26.5755615,27.9759521 L26.8670654,27.9056396 L29.243042,27.3325195 C29.6883545,27.2186279 30.0003662,26.817627 30.0003662,26.3576661 L30.0003662,17.4744873 L20.6253662,19.3494873 L20.6253662,32.4404297 C20.625,35.291748 17.6652833,37.59375 14.8139648,37.59375 L14.7125244,37.59375 C12.9173584,37.59375 11.1899414,36.4156494 10.9152833,34.642456 C10.8651123,34.3154297 10.8621826,33.9898682 10.9053955,33.6639404 C11.0863037,32.2661133 12.1329346,31.1293945 13.4505615,30.7371826 L13.7420654,30.6668701 L16.1176758,30.09375 C16.5633545,29.9802246 16.875,29.5788574 16.875,29.1192627 L16.875,12.5255127 Z" id="Shape"></path>
            </g>
        </g>
    </g>
</svg>